<?xml version="1.0" encoding="UTF-8" standalone="no"?>
<!DOCTYPE svg PUBLIC "-//W3C//DTD SVG 1.1//EN"
 "http://www.w3.org/Graphics/SVG/1.1/DTD/svg11.dtd">
<!-- Generated by graphviz version 2.47.0 (20210316.0004)
 -->
<!-- Title: dependencies Pages: 1 -->
<svg width="504pt" height="211pt"
 viewBox="0.00 0.00 504.00 211.00" xmlns="http://www.w3.org/2000/svg" xmlns:xlink="http://www.w3.org/1999/xlink">
<g id="graph0" class="graph" transform="scale(1 1) rotate(0) translate(4 207)">
<title>dependencies</title>
<polygon fill="white" stroke="transparent" points="-4,4 -4,-207 500,-207 500,4 -4,4"/>
<text text-anchor="start" x="227.01" y="-42.4" font-family="Times-12" font-weight="bold" font-size="14.00">Legend</text>
<polygon fill="#ffffb3" stroke="transparent" points="14,-10 14,-30 34,-30 34,-10 14,-10"/>
<text text-anchor="start" x="37.63" y="-15.4" font-family="Times-12" font-size="14.00"> &#160;Declarations</text>
<polygon fill="#8dd3c7" stroke="transparent" points="127,-10 127,-30 147,-30 147,-10 127,-10"/>
<text text-anchor="start" x="150.73" y="-15.4" font-family="Times-12" font-size="14.00"> &#160;Module</text>
<polygon fill="#80b1d3" stroke="transparent" points="213,-10 213,-30 233,-30 233,-10 213,-10"/>
<text text-anchor="start" x="236.78" y="-15.4" font-family="Times-12" font-size="14.00"> &#160;Bootstrap</text>
<polygon fill="#fdb462" stroke="transparent" points="310,-10 310,-30 330,-30 330,-10 310,-10"/>
<text text-anchor="start" x="333.67" y="-15.4" font-family="Times-12" font-size="14.00"> &#160;Providers</text>
<polygon fill="#fb8072" stroke="transparent" points="406,-10 406,-30 426,-30 426,-10 406,-10"/>
<text text-anchor="start" x="429.73" y="-15.4" font-family="Times-12" font-size="14.00"> &#160;Exports</text>
<g id="clust1" class="cluster">
<title>cluster_AppModule</title>
<polygon fill="none" stroke="black" stroke-dasharray="1,5" points="66,-70 66,-195 430,-195 430,-70 66,-70"/>
</g>
<g id="clust3" class="cluster">
<title>cluster_AppModule_imports</title>
<polygon fill="none" stroke="black" points="212,-78 212,-130 422,-130 422,-78 212,-78"/>
</g>
<g id="clust6" class="cluster">
<title>cluster_AppModule_providers</title>
<polygon fill="none" stroke="black" points="74,-78 74,-130 204,-130 204,-78 74,-78"/>
</g>
<!-- PostsModule -->
<g id="node1" class="node">
<title>PostsModule</title>
<polygon fill="#8dd3c7" stroke="black" points="413.61,-122 410.61,-126 389.61,-126 386.61,-122 324.39,-122 324.39,-86 413.61,-86 413.61,-122"/>
<text text-anchor="middle" x="369" y="-99.8" font-family="Times,serif" font-size="14.00">PostsModule</text>
</g>
<!-- AppModule -->
<g id="node3" class="node">
<title>AppModule</title>
<polygon fill="#8dd3c7" stroke="black" points="304.66,-187 301.66,-191 280.66,-191 277.66,-187 221.34,-187 221.34,-151 304.66,-151 304.66,-187"/>
<text text-anchor="middle" x="263" y="-164.8" font-family="Times,serif" font-size="14.00">AppModule</text>
</g>
<!-- PostsModule&#45;&gt;AppModule -->
<g id="edge1" class="edge">
<title>PostsModule&#45;&gt;AppModule</title>
<path fill="none" stroke="black" d="M369,-122.11C369,-141.34 369,-169 369,-169 369,-169 314.89,-169 314.89,-169"/>
<polygon fill="black" stroke="black" points="314.89,-165.5 304.89,-169 314.89,-172.5 314.89,-165.5"/>
</g>
<!-- UserModule -->
<g id="node2" class="node">
<title>UserModule</title>
<polygon fill="#8dd3c7" stroke="black" points="305.98,-122 302.98,-126 281.98,-126 278.98,-122 220.02,-122 220.02,-86 305.98,-86 305.98,-122"/>
<text text-anchor="middle" x="263" y="-99.8" font-family="Times,serif" font-size="14.00">UserModule</text>
</g>
<!-- UserModule&#45;&gt;AppModule -->
<g id="edge2" class="edge">
<title>UserModule&#45;&gt;AppModule</title>
<path fill="none" stroke="black" d="M263,-122.11C263,-122.11 263,-140.99 263,-140.99"/>
<polygon fill="black" stroke="black" points="259.5,-140.99 263,-150.99 266.5,-140.99 259.5,-140.99"/>
</g>
<!-- AppService -->
<g id="node4" class="node">
<title>AppService</title>
<ellipse fill="#fdb462" stroke="black" cx="139" cy="-104" rx="56.74" ry="18"/>
<text text-anchor="middle" x="139" y="-99.8" font-family="Times,serif" font-size="14.00">AppService</text>
</g>
<!-- AppService&#45;&gt;AppModule -->
<g id="edge3" class="edge">
<title>AppService&#45;&gt;AppModule</title>
<path fill="none" stroke="black" d="M139,-122.11C139,-141.34 139,-169 139,-169 139,-169 211.02,-169 211.02,-169"/>
<polygon fill="black" stroke="black" points="211.02,-172.5 221.02,-169 211.02,-165.5 211.02,-172.5"/>
</g>
</g>
</svg>
