<?xml version="1.0" encoding="UTF-8" standalone="no"?>
<!DOCTYPE svg PUBLIC "-//W3C//DTD SVG 1.1//EN"
 "http://www.w3.org/Graphics/SVG/1.1/DTD/svg11.dtd">
<!-- Generated by graphviz version 2.47.0 (20210316.0004)
 -->
<!-- Title: dependencies Pages: 1 -->
<svg width="504pt" height="295pt"
 viewBox="0.00 0.00 504.00 295.00" xmlns="http://www.w3.org/2000/svg" xmlns:xlink="http://www.w3.org/1999/xlink">
<g id="graph0" class="graph" transform="scale(1 1) rotate(0) translate(4 291)">
<title>dependencies</title>
<polygon fill="white" stroke="transparent" points="-4,4 -4,-291 500,-291 500,4 -4,4"/>
<text text-anchor="start" x="227.01" y="-42.4" font-family="Times-12" font-weight="bold" font-size="14.00">Legend</text>
<polygon fill="#ffffb3" stroke="transparent" points="14,-10 14,-30 34,-30 34,-10 14,-10"/>
<text text-anchor="start" x="37.63" y="-15.4" font-family="Times-12" font-size="14.00"> &#160;Declarations</text>
<polygon fill="#8dd3c7" stroke="transparent" points="127,-10 127,-30 147,-30 147,-10 127,-10"/>
<text text-anchor="start" x="150.73" y="-15.4" font-family="Times-12" font-size="14.00"> &#160;Module</text>
<polygon fill="#80b1d3" stroke="transparent" points="213,-10 213,-30 233,-30 233,-10 213,-10"/>
<text text-anchor="start" x="236.78" y="-15.4" font-family="Times-12" font-size="14.00"> &#160;Bootstrap</text>
<polygon fill="#fdb462" stroke="transparent" points="310,-10 310,-30 330,-30 330,-10 310,-10"/>
<text text-anchor="start" x="333.67" y="-15.4" font-family="Times-12" font-size="14.00"> &#160;Providers</text>
<polygon fill="#fb8072" stroke="transparent" points="406,-10 406,-30 426,-30 426,-10 406,-10"/>
<text text-anchor="start" x="429.73" y="-15.4" font-family="Times-12" font-size="14.00"> &#160;Exports</text>
<g id="clust13" class="cluster">
<title>cluster_UserModule</title>
<polygon fill="none" stroke="black" stroke-dasharray="1,5" points="32.5,-70 32.5,-279 180.5,-279 180.5,-70 32.5,-70"/>
</g>
<g id="clust16" class="cluster">
<title>cluster_UserModule_exports</title>
<polygon fill="none" stroke="black" points="61.5,-219 61.5,-271 165.5,-271 165.5,-219 61.5,-219"/>
</g>
<g id="clust18" class="cluster">
<title>cluster_UserModule_providers</title>
<polygon fill="none" stroke="black" points="40.5,-78 40.5,-130 172.5,-130 172.5,-78 40.5,-78"/>
</g>
<g id="clust1" class="cluster">
<title>cluster_AppModule</title>
<polygon fill="none" stroke="black" stroke-dasharray="1,5" points="188.5,-146 188.5,-271 448.5,-271 448.5,-146 188.5,-146"/>
</g>
<g id="clust3" class="cluster">
<title>cluster_AppModule_imports</title>
<polygon fill="none" stroke="black" points="334.5,-154 334.5,-206 440.5,-206 440.5,-154 334.5,-154"/>
</g>
<g id="clust6" class="cluster">
<title>cluster_AppModule_providers</title>
<polygon fill="none" stroke="black" points="196.5,-154 196.5,-206 326.5,-206 326.5,-154 196.5,-154"/>
</g>
<g id="clust7" class="cluster">
<title>cluster_PostsModule</title>
<polygon fill="none" stroke="black" stroke-dasharray="1,5" points="311.5,-70 311.5,-138 463.5,-138 463.5,-70 311.5,-70"/>
</g>
<g id="clust12" class="cluster">
<title>cluster_PostsModule_providers</title>
<polygon fill="none" stroke="black" points="319.5,-78 319.5,-130 455.5,-130 455.5,-78 319.5,-78"/>
</g>
<!-- PostsModule -->
<g id="node1" class="node">
<title>PostsModule</title>
<polygon fill="#8dd3c7" stroke="black" points="432.11,-198 429.11,-202 408.11,-202 405.11,-198 342.89,-198 342.89,-162 432.11,-162 432.11,-198"/>
<text text-anchor="middle" x="387.5" y="-175.8" font-family="Times,serif" font-size="14.00">PostsModule</text>
</g>
<!-- AppModule -->
<g id="node3" class="node">
<title>AppModule</title>
<polygon fill="#8dd3c7" stroke="black" points="303.16,-263 300.16,-267 279.16,-267 276.16,-263 219.84,-263 219.84,-227 303.16,-227 303.16,-263"/>
<text text-anchor="middle" x="261.5" y="-240.8" font-family="Times,serif" font-size="14.00">AppModule</text>
</g>
<!-- PostsModule&#45;&gt;AppModule -->
<g id="edge1" class="edge">
<title>PostsModule&#45;&gt;AppModule</title>
<path fill="none" stroke="black" d="M387.5,-198.11C387.5,-217.34 387.5,-245 387.5,-245 387.5,-245 313.46,-245 313.46,-245"/>
<polygon fill="black" stroke="black" points="313.46,-241.5 303.46,-245 313.46,-248.5 313.46,-241.5"/>
</g>
<!-- UserModule -->
<g id="node2" class="node">
<title>UserModule</title>
<polygon fill="#8dd3c7" stroke="black" points="156.48,-198 153.48,-202 132.48,-202 129.48,-198 70.52,-198 70.52,-162 156.48,-162 156.48,-198"/>
<text text-anchor="middle" x="113.5" y="-175.8" font-family="Times,serif" font-size="14.00">UserModule</text>
</g>
<!-- UserModule&#45;&gt;AppModule -->
<g id="edge2" class="edge">
<title>UserModule&#45;&gt;AppModule</title>
<path fill="none" stroke="black" d="M156.69,-180C159.41,-180 161.09,-180 161.09,-180 161.09,-180 161.09,-245 161.09,-245 161.09,-245 209.79,-245 209.79,-245"/>
<polygon fill="black" stroke="black" points="209.79,-248.5 219.79,-245 209.79,-241.5 209.79,-248.5"/>
</g>
<!-- UserService  -->
<g id="node6" class="node">
<title>UserService </title>
<polygon fill="#fb8072" stroke="black" points="157.4,-263 69.6,-263 69.6,-227 157.4,-227 157.4,-263"/>
<text text-anchor="middle" x="113.5" y="-240.8" font-family="Times,serif" font-size="14.00">UserService </text>
</g>
<!-- UserModule&#45;&gt;UserService  -->
<g id="edge5" class="edge">
<title>UserModule&#45;&gt;UserService </title>
<path fill="none" stroke="black" stroke-dasharray="5,2" d="M113.5,-198.11C113.5,-198.11 113.5,-216.99 113.5,-216.99"/>
<polygon fill="black" stroke="black" points="110,-216.99 113.5,-226.99 117,-216.99 110,-216.99"/>
</g>
<!-- AppService -->
<g id="node4" class="node">
<title>AppService</title>
<ellipse fill="#fdb462" stroke="black" cx="261.5" cy="-180" rx="56.74" ry="18"/>
<text text-anchor="middle" x="261.5" y="-175.8" font-family="Times,serif" font-size="14.00">AppService</text>
</g>
<!-- AppService&#45;&gt;AppModule -->
<g id="edge3" class="edge">
<title>AppService&#45;&gt;AppModule</title>
<path fill="none" stroke="black" d="M261.5,-198.11C261.5,-198.11 261.5,-216.99 261.5,-216.99"/>
<polygon fill="black" stroke="black" points="258,-216.99 261.5,-226.99 265,-216.99 258,-216.99"/>
</g>
<!-- PostsService -->
<g id="node5" class="node">
<title>PostsService</title>
<ellipse fill="#fdb462" stroke="black" cx="387.5" cy="-104" rx="60.27" ry="18"/>
<text text-anchor="middle" x="387.5" y="-99.8" font-family="Times,serif" font-size="14.00">PostsService</text>
</g>
<!-- PostsService&#45;&gt;PostsModule -->
<g id="edge4" class="edge">
<title>PostsService&#45;&gt;PostsModule</title>
<path fill="none" stroke="black" d="M387.5,-122.01C387.5,-122.01 387.5,-151.85 387.5,-151.85"/>
<polygon fill="black" stroke="black" points="384,-151.85 387.5,-161.85 391,-151.85 384,-151.85"/>
</g>
<!-- UserService -->
<g id="node7" class="node">
<title>UserService</title>
<ellipse fill="#fdb462" stroke="black" cx="106.5" cy="-104" rx="58.44" ry="18"/>
<text text-anchor="middle" x="106.5" y="-99.8" font-family="Times,serif" font-size="14.00">UserService</text>
</g>
<!-- UserService&#45;&gt;UserModule -->
<g id="edge6" class="edge">
<title>UserService&#45;&gt;UserModule</title>
<path fill="none" stroke="black" d="M113.5,-122.01C113.5,-122.01 113.5,-151.85 113.5,-151.85"/>
<polygon fill="black" stroke="black" points="110,-151.85 113.5,-161.85 117,-151.85 110,-151.85"/>
</g>
</g>
</svg>
